<?xml version="1.0" encoding="UTF-8" standalone="no"?>
<!DOCTYPE svg PUBLIC "-//W3C//DTD SVG 1.1//EN"
 "http://www.w3.org/Graphics/SVG/1.1/DTD/svg11.dtd">
<!-- Generated by graphviz version 12.1.2 (20240928.0832)
 -->
<!-- Title: infrastructure Pages: 1 -->
<svg width="1308pt" height="1469pt"
 viewBox="0.00 0.00 1308.00 1468.80" xmlns="http://www.w3.org/2000/svg" xmlns:xlink="http://www.w3.org/1999/xlink">
<g id="graph0" class="graph" transform="scale(1 1) rotate(0) translate(108 1360.8)">
<title>infrastructure</title>
<polygon fill="white" stroke="none" points="-108,108 -108,-1360.8 1200,-1360.8 1200,108 -108,108"/>
<g id="clust1" class="cluster">
<title>cluster_aws_vpc_main</title>
<polygon fill="none" stroke="#8c4fff" points="8,-821.6 8,-1244.8 877,-1244.8 877,-821.6 8,-821.6"/>
<text text-anchor="start" x="18" y="-1226.2" font-family="Sans-Serif" font-size="14.00" fill="#8c4fff">VPC — main</text>
</g>
<g id="clust2" class="cluster">
<title>cluster_aws_subnet_public</title>
<polygon fill="#f2f7ee" stroke="#f2f7ee" points="58,-871.6 58,-1166 575,-1166 575,-871.6 58,-871.6"/>
<text text-anchor="start" x="68" y="-1147.4" font-family="Sans-Serif" font-size="14.00" fill="#558b2f">Subnet — public</text>
</g>
<g id="clust3" class="cluster">
<title>cluster_aws_subnet_private</title>
<polygon fill="#f2f7ee" stroke="#f2f7ee" points="691,-943.6 691,-1094 827,-1094 827,-943.6 691,-943.6"/>
<text text-anchor="start" x="701" y="-1075.4" font-family="Sans-Serif" font-size="14.00" fill="#558b2f">Subnet — private</text>
</g>
<g id="clust4" class="cluster">
<title>cluster_aws_security_group_web</title>
<polygon fill="none" stroke="red" points="938,-943.6 938,-1094 1084,-1094 1084,-943.6 938,-943.6"/>
<text text-anchor="start" x="948" y="-1075.4" font-family="Sans-Serif" font-size="14.00" fill="red">Security Group — web</text>
</g>
<!-- aws_instance_web_a -->
<g id="node1" class="node">
<title>aws_instance_web_a</title>
<text text-anchor="middle" x="158" y="-925.8" font-family="Sans-Serif" font-size="14.00" fill="#2d3436">EC2\nweb_a</text>
</g>
<!-- aws_security_group_web -->
<g id="node5" class="node">
<title>aws_security_group_web</title>
<path fill="none" stroke="black" d="M354.4,-561.6C354.4,-561.6 277.6,-561.6 277.6,-561.6 271.6,-561.6 265.6,-555.6 265.6,-549.6 265.6,-549.6 265.6,-472.8 265.6,-472.8 265.6,-466.8 271.6,-460.8 277.6,-460.8 277.6,-460.8 354.4,-460.8 354.4,-460.8 360.4,-460.8 366.4,-466.8 366.4,-472.8 366.4,-472.8 366.4,-549.6 366.4,-549.6 366.4,-555.6 360.4,-561.6 354.4,-561.6"/>
<text text-anchor="middle" x="316" y="-465" font-family="Sans-Serif" font-size="14.00" fill="#2d3436">aws_security_group_web</text>
</g>
<!-- aws_instance_web_a&#45;&gt;aws_security_group_web -->
<g id="edge2" class="edge">
<title>aws_instance_web_a&#45;&gt;aws_security_group_web</title>
<path fill="none" stroke="#7b8894" d="M158,-921.85C158,-781.45 158,-511.2 158,-511.2 158,-511.2 253.62,-511.2 253.62,-511.2"/>
<polygon fill="#7b8894" stroke="#7b8894" points="253.62,-514.7 263.62,-511.2 253.62,-507.7 253.62,-514.7"/>
</g>
<!-- aws_instance_web_b -->
<g id="node2" class="node">
<title>aws_instance_web_b</title>
<text text-anchor="middle" x="475" y="-925.8" font-family="Sans-Serif" font-size="14.00" fill="#2d3436">EC2\nweb_b</text>
</g>
<!-- aws_instance_web_b&#45;&gt;aws_security_group_web -->
<g id="edge3" class="edge">
<title>aws_instance_web_b&#45;&gt;aws_security_group_web</title>
<path fill="none" stroke="#7b8894" d="M475,-921.85C475,-781.45 475,-511.2 475,-511.2 475,-511.2 378.26,-511.2 378.26,-511.2"/>
<polygon fill="#7b8894" stroke="#7b8894" points="378.26,-507.7 368.26,-511.2 378.26,-514.7 378.26,-507.7"/>
</g>
<!-- aws_subnet_private_anchor -->
<g id="node3" class="node">
<title>aws_subnet_private_anchor</title>
<text text-anchor="middle" x="759" y="-997.8" font-family="Sans-Serif" font-size="14.00" fill="#2d3436">aws_subnet_private_anchor</text>
</g>
<!-- aws_security_group_web_anchor -->
<g id="node4" class="node">
<title>aws_security_group_web_anchor</title>
<text text-anchor="middle" x="1011" y="-997.8" font-family="Sans-Serif" font-size="14.00" fill="#2d3436">aws_security_group_web_anchor</text>
</g>
<!-- aws_vpc_main -->
<g id="node6" class="node">
<title>aws_vpc_main</title>
<path fill="none" stroke="black" d="M354.4,-100.8C354.4,-100.8 277.6,-100.8 277.6,-100.8 271.6,-100.8 265.6,-94.8 265.6,-88.8 265.6,-88.8 265.6,-12 265.6,-12 265.6,-6 271.6,0 277.6,0 277.6,0 354.4,0 354.4,0 360.4,0 366.4,-6 366.4,-12 366.4,-12 366.4,-88.8 366.4,-88.8 366.4,-94.8 360.4,-100.8 354.4,-100.8"/>
<text text-anchor="middle" x="316" y="-4.2" font-family="Sans-Serif" font-size="14.00" fill="#2d3436">aws_vpc_main</text>
</g>
<!-- aws_security_group_web&#45;&gt;aws_vpc_main -->
<g id="edge1" class="edge">
<title>aws_security_group_web&#45;&gt;aws_vpc_main</title>
<path fill="none" stroke="#7b8894" d="M316,-460.57C316,-460.57 316,-112.63 316,-112.63"/>
<polygon fill="#7b8894" stroke="#7b8894" points="319.5,-112.63 316,-102.63 312.5,-112.63 319.5,-112.63"/>
</g>
</g>
</svg>
