<?xml version="1.0" encoding="UTF-8" standalone="no"?>
<!DOCTYPE svg PUBLIC "-//W3C//DTD SVG 1.1//EN"
 "http://www.w3.org/Graphics/SVG/1.1/DTD/svg11.dtd">
<!-- Generated by graphviz version 12.1.2 (20240928.0832)
 -->
<!-- Title: infrastructure Pages: 1 -->
<svg width="834pt" height="534pt"
 viewBox="0.00 0.00 834.06 533.60" xmlns="http://www.w3.org/2000/svg" xmlns:xlink="http://www.w3.org/1999/xlink">
<g id="graph0" class="graph" transform="scale(1 1) rotate(0) translate(36 497.6)">
<title>infrastructure</title>
<polygon fill="white" stroke="none" points="-36,36 -36,-497.6 798.06,-497.6 798.06,36 -36,36"/>
<g id="clust1" class="cluster">
<title>cluster_aws_vpc_main</title>
<polygon fill="#8c4fff" stroke="#8c4fff" stroke-width="2" points="15.06,-256 15.06,-453.6 534.06,-453.6 534.06,-256 15.06,-256"/>
<text text-anchor="middle" x="53.76" y="-437.9" font-family="Sans-Serif" font-size="13.00" fill="#6b21a8">VPC\nmain</text>
</g>
<g id="clust2" class="cluster">
<title>cluster_aws_subnet_public</title>
<polygon fill="#7cb342" stroke="#7cb342" stroke-width="2" points="31.06,-272 31.06,-414 307.06,-414 307.06,-272 31.06,-272"/>
<text text-anchor="middle" x="78.42" y="-398.3" font-family="Sans-Serif" font-size="13.00" fill="#558b2f">Subnet\npublic</text>
</g>
<g id="clust3" class="cluster">
<title>cluster_aws_subnet_private</title>
<polygon fill="#7cb342" stroke="#7cb342" stroke-width="2" points="348.06,-304.4 348.06,-381.6 518.06,-381.6 518.06,-304.4 348.06,-304.4"/>
<text text-anchor="middle" x="397.22" y="-365.9" font-family="Sans-Serif" font-size="13.00" fill="#558b2f">Subnet\nprivate</text>
</g>
<g id="clust4" class="cluster">
<title>cluster_aws_security_group_web</title>
<polygon fill="#e53935" stroke="#e53935" stroke-width="2" stroke-dasharray="5,2" points="558.06,-304.4 558.06,-381.6 754.06,-381.6 754.06,-304.4 558.06,-304.4"/>
<text text-anchor="middle" x="621.84" y="-365.9" font-family="Sans-Serif" font-size="13.00" fill="#c62828">Security Group\nweb</text>
</g>
<!-- aws_instance_web_a -->
<g id="node1" class="node">
<title>aws_instance_web_a</title>
<text text-anchor="middle" x="90.06" y="-291.3" font-family="Sans-Serif" font-size="11.00" fill="#2d3436">EC2\nweb_a</text>
</g>
<!-- aws_subnet_public -->
<g id="node5" class="node">
<title>aws_subnet_public</title>
<ellipse fill="none" stroke="black" cx="62.06" cy="-162" rx="62.06" ry="18"/>
<text text-anchor="middle" x="62.06" y="-158.7" font-family="Sans-Serif" font-size="11.00" fill="#2d3436">aws_subnet_public</text>
</g>
<!-- aws_instance_web_a&#45;&gt;aws_subnet_public -->
<g id="edge4" class="edge">
<title>aws_instance_web_a&#45;&gt;aws_subnet_public</title>
<path fill="none" stroke="#7b8894" d="M83,-288.01C77.94,-257.81 71.27,-217.96 66.83,-191.46"/>
<polygon fill="#7b8894" stroke="#7b8894" points="70.31,-191.08 65.21,-181.8 63.41,-192.24 70.31,-191.08"/>
</g>
<!-- aws_security_group_web -->
<g id="node8" class="node">
<title>aws_security_group_web</title>
<ellipse fill="none" stroke="black" cx="276.06" cy="-162" rx="79.44" ry="18"/>
<text text-anchor="middle" x="276.06" y="-158.7" font-family="Sans-Serif" font-size="11.00" fill="#2d3436">aws_security_group_web</text>
</g>
<!-- aws_instance_web_a&#45;&gt;aws_security_group_web -->
<g id="edge5" class="edge">
<title>aws_instance_web_a&#45;&gt;aws_security_group_web</title>
<path fill="none" stroke="#7b8894" d="M133.25,-289.07C144.8,-278.23 157.34,-266.6 169.06,-256 195.27,-232.32 225.72,-205.97 247.42,-187.38"/>
<polygon fill="#7b8894" stroke="#7b8894" points="249.67,-190.06 254.99,-180.9 245.12,-184.74 249.67,-190.06"/>
</g>
<!-- aws_instance_web_b -->
<g id="node2" class="node">
<title>aws_instance_web_b</title>
<text text-anchor="middle" x="248.06" y="-291.3" font-family="Sans-Serif" font-size="11.00" fill="#2d3436">EC2\nweb_b</text>
</g>
<!-- aws_instance_web_b&#45;&gt;aws_subnet_public -->
<g id="edge6" class="edge">
<title>aws_instance_web_b&#45;&gt;aws_subnet_public</title>
<path fill="none" stroke="#7b8894" d="M204.88,-289.07C193.33,-278.23 180.79,-266.6 169.06,-256 142.54,-232.03 111.67,-205.32 89.92,-186.7"/>
<polygon fill="#7b8894" stroke="#7b8894" points="92.22,-184.07 82.35,-180.23 87.68,-189.39 92.22,-184.07"/>
</g>
<!-- aws_instance_web_b&#45;&gt;aws_security_group_web -->
<g id="edge7" class="edge">
<title>aws_instance_web_b&#45;&gt;aws_security_group_web</title>
<path fill="none" stroke="#7b8894" d="M255.13,-288.01C260.19,-257.81 266.86,-217.96 271.3,-191.46"/>
<polygon fill="#7b8894" stroke="#7b8894" points="274.72,-192.24 272.92,-181.8 267.81,-191.08 274.72,-192.24"/>
</g>
<!-- aws_subnet_private_anchor -->
<g id="node3" class="node">
<title>aws_subnet_private_anchor</title>
<text text-anchor="middle" x="433.06" y="-327.9" font-family="Sans-Serif" font-size="11.00" fill="#2d3436">aws_subnet_private_anchor</text>
</g>
<!-- aws_security_group_web_anchor -->
<g id="node4" class="node">
<title>aws_security_group_web_anchor</title>
<text text-anchor="middle" x="656.06" y="-327.9" font-family="Sans-Serif" font-size="11.00" fill="#2d3436">aws_security_group_web_anchor</text>
</g>
<!-- aws_vpc_main -->
<g id="node6" class="node">
<title>aws_vpc_main</title>
<ellipse fill="none" stroke="black" cx="276.06" cy="-18" rx="50.72" ry="18"/>
<text text-anchor="middle" x="276.06" y="-14.7" font-family="Sans-Serif" font-size="11.00" fill="#2d3436">aws_vpc_main</text>
</g>
<!-- aws_subnet_public&#45;&gt;aws_vpc_main -->
<g id="edge1" class="edge">
<title>aws_subnet_public&#45;&gt;aws_vpc_main</title>
<path fill="none" stroke="#7b8894" d="M86.2,-144.99C124.73,-119.42 200.22,-69.33 243.5,-40.61"/>
<polygon fill="#7b8894" stroke="#7b8894" points="245.33,-43.59 251.73,-35.15 241.46,-37.76 245.33,-43.59"/>
</g>
<!-- aws_subnet_private -->
<g id="node7" class="node">
<title>aws_subnet_private</title>
<ellipse fill="none" stroke="black" cx="491.06" cy="-162" rx="63.95" ry="18"/>
<text text-anchor="middle" x="491.06" y="-158.7" font-family="Sans-Serif" font-size="11.00" fill="#2d3436">aws_subnet_private</text>
</g>
<!-- aws_subnet_private&#45;&gt;aws_vpc_main -->
<g id="edge2" class="edge">
<title>aws_subnet_private&#45;&gt;aws_vpc_main</title>
<path fill="none" stroke="#7b8894" d="M466.82,-144.99C428.1,-119.42 352.26,-69.33 308.78,-40.61"/>
<polygon fill="#7b8894" stroke="#7b8894" points="310.78,-37.73 300.5,-35.14 306.92,-43.57 310.78,-37.73"/>
</g>
<!-- aws_security_group_web&#45;&gt;aws_vpc_main -->
<g id="edge3" class="edge">
<title>aws_security_group_web&#45;&gt;aws_vpc_main</title>
<path fill="none" stroke="#7b8894" d="M276.06,-143.59C276.06,-119.61 276.06,-76.14 276.06,-47.42"/>
<polygon fill="#7b8894" stroke="#7b8894" points="279.56,-47.62 276.06,-37.62 272.56,-47.62 279.56,-47.62"/>
</g>
</g>
</svg>
